<svg xmlns="http://www.w3.org/2000/svg" width="466.878" height="84.99" viewBox="0 0 824 150">
  <metadata><?xpacket begin="﻿" id="W5M0MpCehiHzreSzNTczkc9d"?>
<x:xmpmeta xmlns:x="adobe:ns:meta/" x:xmptk="Adobe XMP Core 5.6-c142 79.160924, 2017/07/13-01:06:39        ">
   <rdf:RDF xmlns:rdf="http://www.w3.org/1999/02/22-rdf-syntax-ns#">
      <rdf:Description rdf:about=""/>
   </rdf:RDF>
</x:xmpmeta>
                                                                                                    
                                                                                                    
                                                                                                    
                                                                                                    
                                                                                                    
                                                                                                    
                                                                                                    
                                                                                                    
                                                                                                    
                                                                                                    
                                                                                                    
                                                                                                    
                                                                                                    
                                                                                                    
                                                                                                    
                                                                                                    
                                                                                                    
                                                                                                    
                                                                                                    
                                                                                                    
                           
<?xpacket end="w"?></metadata>
<defs>
    <style>
      .cls-1 {
        fill: #fff;
      }

      .cls-1, .cls-2, .cls-3, .cls-4 {
        fill-rule: evenodd;
      }

      .cls-2 {
        fill: #cc1414;
      }

      .cls-3 {
        fill: #0d800d;
      }

      .cls-4 {
        fill: #e9ab07;
      }
    </style>
  </defs>
  <path class="cls-1" d="M211.558,88.209L200.6,115.985H218.91v11.162H196.158L192.42,136.6H180.379l25.159-63.482h12.041L242.738,136.6H230.7ZM294.7,73.114V136.6H283.549V111.42a14.63,14.63,0,0,0-1.172-5.836,14.963,14.963,0,0,0-7.953-7.957,15.045,15.045,0,0,0-11.661,0,14.954,14.954,0,0,0-7.953,7.957,15.1,15.1,0,0,0,0,11.669,14.975,14.975,0,0,0,7.953,7.96,14.569,14.569,0,0,0,5.831,1.173,14.794,14.794,0,0,0,4.563-.7,15.285,15.285,0,0,0,3.991-1.968l5.007,10.02a26.686,26.686,0,0,1-6.432,2.821,26.081,26.081,0,0,1-17.27-1.077,26.351,26.351,0,0,1-13.909-13.919,26.023,26.023,0,0,1,0-20.3,26.349,26.349,0,0,1,13.909-13.919,25.24,25.24,0,0,1,10.141-2.06,24.732,24.732,0,0,1,7.953,1.268,28.1,28.1,0,0,1,7,3.487V73.114H294.7Zm30.419,64.243a23.481,23.481,0,0,1-9.411-1.9,24.164,24.164,0,0,1-12.832-12.841,23.5,23.5,0,0,1-1.9-9.419V86.244h11.154v26.315a14.447,14.447,0,0,0,1.172,5.771,14.681,14.681,0,0,0,3.2,4.725,15.472,15.472,0,0,0,4.721,3.171,14.842,14.842,0,0,0,11.566,0,14.732,14.732,0,0,0,7.89-7.9,14.432,14.432,0,0,0,1.174-5.771V86.244h11.153v50.413H341.855V130.57a24.679,24.679,0,0,1-7.575,4.979A23.315,23.315,0,0,1,325.123,137.357ZM378.8,87.8a25.057,25.057,0,0,1,10.9-2.379V96.58a20.192,20.192,0,0,0-6.528,1.17,25.035,25.035,0,0,0-6.306,3.2,19.3,19.3,0,0,0-4.784,4.749,9.9,9.9,0,0,0-1.9,5.762v25.071H359.027v-50.1h11.154v7.8A26.8,26.8,0,0,1,378.8,87.8Zm49.116,29.139H400.284a14.667,14.667,0,0,0,2.186,3.779,14.486,14.486,0,0,0,3.169,2.928,15.4,15.4,0,0,0,3.961,1.922,14.661,14.661,0,0,0,4.5.691,14.172,14.172,0,0,0,7.446-2,15.666,15.666,0,0,0,5.355-5.3l9.507,5.771a25.661,25.661,0,0,1-4.088,5.188,26.155,26.155,0,0,1-11.375,6.57,25.918,25.918,0,0,1-16.985-1.136A26.131,26.131,0,0,1,390.113,121.5a25.939,25.939,0,0,1,0-20.261,26.97,26.97,0,0,1,5.577-8.276,26.174,26.174,0,0,1,8.27-5.612,25.986,25.986,0,0,1,20.279,0,26.178,26.178,0,0,1,8.271,5.612,26.985,26.985,0,0,1,5.576,8.276,25.047,25.047,0,0,1,2.06,10.116,23.1,23.1,0,0,1-.633,5.581h-11.6Zm0-11.162A14.127,14.127,0,0,0,425.7,102a15.568,15.568,0,0,0-3.168-2.929,14.846,14.846,0,0,0-8.429-2.615,14.645,14.645,0,0,0-4.5.694,15.3,15.3,0,0,0-3.961,1.922A14.481,14.481,0,0,0,402.47,102a14.634,14.634,0,0,0-2.186,3.779h27.631Zm44.678-20.482a23.11,23.11,0,0,1,9.317,1.9,24.238,24.238,0,0,1,12.8,12.844,23.33,23.33,0,0,1,1.9,9.354v27.14H485.458V110.023a14.228,14.228,0,0,0-1.171-5.737,14.874,14.874,0,0,0-7.841-7.865,14.127,14.127,0,0,0-5.721-1.173,14.366,14.366,0,0,0-5.756,1.173,14.788,14.788,0,0,0-7.873,7.865,14.227,14.227,0,0,0-1.169,5.737v26.508H444.772V86.306h11.155l-0.064,5.771a24.728,24.728,0,0,1,7.572-4.979A23.316,23.316,0,0,1,472.593,85.293Zm85.239,52.126a33.078,33.078,0,0,1-5.356-.442,27.837,27.837,0,0,1-5.292-1.428,31.025,31.025,0,0,1-5.1-2.5,23.526,23.526,0,0,1-4.657-3.742l-3.93-3.933,7.921-7.926,3.93,3.933a13.916,13.916,0,0,0,4.531,3.137,20.482,20.482,0,0,0,5.228,1.492,21,21,0,0,0,5.261.095,16.534,16.534,0,0,0,4.688-1.173,14.468,14.468,0,0,0,1.65-.825,9.533,9.533,0,0,0,1.709-1.268,7.033,7.033,0,0,0,1.362-1.713,4.422,4.422,0,0,0,.54-2.22,8.24,8.24,0,0,0-.666-3.551A5.505,5.505,0,0,0,567.367,113,16.954,16.954,0,0,0,563,111.356q-2.755-.7-6.939-1.459-2.348-.381-4.976-0.921a42.694,42.694,0,0,1-5.228-1.427,29.266,29.266,0,0,1-5.006-2.25,16.649,16.649,0,0,1-4.246-3.423,15.5,15.5,0,0,1-2.915-4.949,19.49,19.49,0,0,1-1.076-6.815,15.2,15.2,0,0,1,2.834-9.007,19.886,19.886,0,0,1,7.94-6.4,28.513,28.513,0,0,1,7.541-2.158,31.718,31.718,0,0,1,8.586-.1,35.374,35.374,0,0,1,8.777,2.284,28.475,28.475,0,0,1,8.112,4.979l4.184,3.678-7.353,8.433-4.182-3.678a18.456,18.456,0,0,0-5.166-3.171,21.375,21.375,0,0,0-5.639-1.458,22.558,22.558,0,0,0-5.482.034,16.514,16.514,0,0,0-4.752,1.3c-0.466.255-.951,0.54-1.46,0.857a7.835,7.835,0,0,0-1.393,1.108,5.051,5.051,0,0,0-1.015,1.461,4.364,4.364,0,0,0-.378,1.839,7.982,7.982,0,0,0,.632,3.423,5.434,5.434,0,0,0,2.249,2.284,17.049,17.049,0,0,0,4.341,1.648q2.724,0.7,6.909,1.394,2.346,0.447,5.006.985a44.042,44.042,0,0,1,5.292,1.424,28.245,28.245,0,0,1,5.007,2.253,16.538,16.538,0,0,1,4.215,3.457,16.249,16.249,0,0,1,2.945,5.01,19.414,19.414,0,0,1,1.111,6.91,15.731,15.731,0,0,1-3.215,9.64,20.969,20.969,0,0,1-8.952,6.723,28.909,28.909,0,0,1-5.387,1.584A31.669,31.669,0,0,1,557.832,137.419Zm58.62-11.985V136.6H606.374a19.942,19.942,0,0,1-7.991-1.618,21.011,21.011,0,0,1-11.045-11,20.025,20.025,0,0,1-1.622-8.056V80.663h11.151v9.956h12.867v11.162H596.867V115.92a9.21,9.21,0,0,0,.761,3.712,9.39,9.39,0,0,0,2.062,3.011,10.13,10.13,0,0,0,3.009,2.03,8.96,8.96,0,0,0,3.675.761h10.078Zm29.341,11.923a23.471,23.471,0,0,1-9.409-1.9,24.172,24.172,0,0,1-12.836-12.841,23.533,23.533,0,0,1-1.9-9.419V86.244H632.8v26.315a14.449,14.449,0,0,0,1.174,5.771,14.649,14.649,0,0,0,3.2,4.725,15.416,15.416,0,0,0,4.722,3.171,14.839,14.839,0,0,0,11.565,0,14.729,14.729,0,0,0,7.891-7.9,14.5,14.5,0,0,0,1.172-5.771V86.244h11.154v50.413H662.525V130.57a24.667,24.667,0,0,1-7.575,4.979A23.315,23.315,0,0,1,645.793,137.357Zm85.491-64.243V136.6H720.129V111.42a14.613,14.613,0,0,0-1.172-5.836A14.949,14.949,0,0,0,711,97.627a15.043,15.043,0,0,0-11.66,0,14.948,14.948,0,0,0-7.952,7.957,15.109,15.109,0,0,0,0,11.669,14.968,14.968,0,0,0,7.952,7.96,14.572,14.572,0,0,0,5.831,1.173,14.774,14.774,0,0,0,4.562-.7,15.356,15.356,0,0,0,4-1.968l5.006,10.02a26.727,26.727,0,0,1-6.433,2.821,26.078,26.078,0,0,1-17.269-1.077,26.379,26.379,0,0,1-13.912-13.919,26.035,26.035,0,0,1,0-20.3,26.377,26.377,0,0,1,13.912-13.919,25.234,25.234,0,0,1,10.139-2.06,24.713,24.713,0,0,1,7.952,1.268,28.081,28.081,0,0,1,7,3.487V73.114h11.155Zm19.327,10.275H739.456V73.114h11.155V83.389Zm0,53.142V86.244H739.456v50.287h11.155Zm38.352-62.646A32.058,32.058,0,1,0,821,105.942,32.046,32.046,0,0,0,788.963,73.885Zm-17.623,39.72a7.735,7.735,0,1,1,7.764-7.7A7.738,7.738,0,0,1,771.34,113.605Zm17.512,17.665a7.735,7.735,0,1,1,7.769-7.7A7.732,7.732,0,0,1,788.852,131.27Zm-3.271-25.328a3.378,3.378,0,1,1,3.382,3.376A3.382,3.382,0,0,1,785.581,105.942ZM789,96.074a7.731,7.731,0,1,1,7.761-7.693A7.733,7.733,0,0,1,789,96.074Zm17.511,17.673a7.731,7.731,0,1,1,7.761-7.7A7.731,7.731,0,0,1,806.513,113.747Z"/>
  <path id="Shape_1_copy" data-name="Shape 1 copy" class="cls-2" d="M55.083,67.106l75.6,67.757A1.8,1.8,0,0,1,129.48,138H12.806a1.8,1.8,0,0,1-1.546-2.732L52.33,67.514A1.81,1.81,0,0,1,55.083,67.106Z"/>
  <path id="Shape_1_copy_2" data-name="Shape 1 copy 2" class="cls-3" d="M66.319,61.061l61.2,10.508a1.807,1.807,0,0,1,1.238.841L160.7,124.959a1.8,1.8,0,0,1-2.559,2.423L65,64.326A1.8,1.8,0,0,1,66.319,61.061Z"/>
  <path id="Shape_1_copy_3" data-name="Shape 1 copy 3" class="cls-4" d="M90.511,9.844l26.074,42.828a1.8,1.8,0,0,1-1.544,2.735H62.892a1.8,1.8,0,0,1-1.544-2.735L87.423,9.844A1.809,1.809,0,0,1,90.511,9.844Z"/>
</svg>
